<?xml version="1.0" encoding="utf-8"?>
<!-- Generator: Adobe Illustrator 21.1.0, SVG Export Plug-In . SVG Version: 6.00 Build 0)  -->
<svg version="1.1" xmlns="http://www.w3.org/2000/svg" xmlns:xlink="http://www.w3.org/1999/xlink" x="0px" y="0px"
	 viewBox="0 0 48 48" style="enable-background:new 0 0 48 48;" xml:space="preserve">
<style type="text/css">
	.st0{display:none;}
	.st1{display:inline;opacity:0.3;}
	.st2{fill:#FF3A40;}
	.st3{fill:none;stroke:#000000;stroke-width:2;stroke-linecap:round;stroke-linejoin:round;stroke-miterlimit:10;}
	.st4{fill:none;stroke:#000000;stroke-width:2;stroke-linecap:round;stroke-miterlimit:10;}
	.st5{fill:none;stroke:#000000;stroke-width:2;stroke-miterlimit:10;}
	.st6{fill:none;stroke:#000000;stroke-width:2;stroke-linejoin:round;stroke-miterlimit:10;}
	.st7{fill:none;}
</style>
<g id="Layer_1" class="st0">
</g>
<g id="guide" class="st0">
	<g class="st1">
		<rect x="8" y="8" class="st2" width="32" height="32"/>
	</g>
</g>
<g id="icon">
	<path d="M31,15.1H12.5l3.7-3.7c0.4-0.4,0.4-1,0-1.4s-1-0.4-1.4,0l-5.5,5.5c-0.4,0.4-0.4,1,0,1.4l5.5,5.5c0.2,0.2,0.5,0.3,0.7,0.3
		s0.5-0.1,0.7-0.3c0.4-0.4,0.4-1,0-1.4l-3.9-3.9H31c3.8,0,7,2.8,7,6.2v5.5c0,3.4-3.1,6.2-7,6.2H16c-0.6,0-1,0.4-1,1s0.4,1,1,1H31
		c4.9,0,9-3.7,9-8.2v-5.5C40,18.8,36,15.1,31,15.1z"/>
</g>
</svg>
