<?xml version="1.0" encoding="utf-8"?>
<!-- Generator: Adobe Illustrator 21.1.0, SVG Export Plug-In . SVG Version: 6.00 Build 0)  -->
<svg version="1.1" xmlns="http://www.w3.org/2000/svg" xmlns:xlink="http://www.w3.org/1999/xlink" x="0px" y="0px"
	 viewBox="0 0 48 48" style="enable-background:new 0 0 48 48;" xml:space="preserve">
<style type="text/css">
	.st0{display:none;}
	.st1{display:inline;opacity:0.3;}
	.st2{fill:#FF3A40;}
	.st3{fill:none;stroke:#000000;stroke-width:2;stroke-linecap:round;stroke-linejoin:round;stroke-miterlimit:10;}
	.st4{fill:none;stroke:#000000;stroke-width:2;stroke-linecap:round;stroke-miterlimit:10;}
	.st5{fill:none;stroke:#000000;stroke-width:2;stroke-miterlimit:10;}
	.st6{fill:none;stroke:#000000;stroke-width:2;stroke-linejoin:round;stroke-miterlimit:10;}
	.st7{fill:none;}
</style>
<g id="Layer_1" class="st0">
</g>
<g id="guide" class="st0">
	<g class="st1">
		<rect x="8" y="8" class="st2" width="32" height="32"/>
	</g>
</g>
<g id="icon">
	<g>
		<g>
			<path d="M14.1,10.2c0.1,0,0.3,0,0.5,0.2l5,5c0.6,0.6,0.2,1,0,1.2l-3,3l-1.2,1.2l0.9,1.4c0.2,0.3,4.3,6.4,10.6,10.6l1.4,0.9
				l1.2-1.2l2.7-2.7c0.2-0.1,0.4-0.1,0.6-0.1l4.8,4.8c-0.1,0.2-0.4,0.6-1,1.2C34.2,38,33.7,38,31,38c-2,0-10.4-5.2-15.5-11.3
				C11,21.3,11,16.9,11,13.1c0-0.2,0.3-1.5,2.7-2.8C13.8,10.3,14,10.2,14.1,10.2 M14.1,8.2c-0.4,0-0.9,0.1-1.3,0.3C9,10.5,9,13,9,13
				c0,4,0,9,5,15s14,12,17,12s4,0,7-3s1-4,1-4s-4-4-5-5c-0.3-0.3-0.8-0.4-1.2-0.4C31.9,27.6,31,28,31,28l-3,3c-6-4-10-10-10-10
				s1-1,3-3s0-4,0-4l-5-5c0,0,0,0,0,0C15.5,8.5,14.8,8.2,14.1,8.2L14.1,8.2z"/>
		</g>
	</g>
</g>
</svg>
