<?xml version="1.0" encoding="utf-8"?>
<!-- Generator: Adobe Illustrator 21.1.0, SVG Export Plug-In . SVG Version: 6.00 Build 0)  -->
<svg version="1.1" xmlns="http://www.w3.org/2000/svg" xmlns:xlink="http://www.w3.org/1999/xlink" x="0px" y="0px"
	 viewBox="0 0 48 48" style="enable-background:new 0 0 48 48;" xml:space="preserve">
<style type="text/css">
	.st0{display:none;}
	.st1{display:inline;opacity:0.3;}
	.st2{fill:#FF3A40;}
	.st3{fill:none;stroke:#000000;stroke-width:2;stroke-linecap:round;stroke-linejoin:round;stroke-miterlimit:10;}
	.st4{fill:none;stroke:#000000;stroke-width:2;stroke-linecap:round;stroke-miterlimit:10;}
	.st5{fill:none;stroke:#000000;stroke-width:2;stroke-miterlimit:10;}
	.st6{fill:none;stroke:#000000;stroke-width:2;stroke-linejoin:round;stroke-miterlimit:10;}
	.st7{fill:none;}
</style>
<g id="Layer_1" class="st0">
</g>
<g id="guide" class="st0">
	<g class="st1">
		<rect x="8" y="8" class="st2" width="32" height="32"/>
	</g>
</g>
<g id="icon">
	<path d="M24,8C15.2,8,8,15.2,8,24c0,8.8,7.2,16,16,16s16-7.2,16-16C40,15.2,32.8,8,24,8z M29.7,28.2c0.4,0.4,0.4,1,0,1.4
		s-1,0.4-1.4,0L24,25.4l-4.2,4.2c-0.4,0.4-1,0.4-1.4,0s-0.4-1,0-1.4l4.2-4.2l-4.2-4.2c-0.4-0.4-0.4-1,0-1.4s1-0.4,1.4,0l4.2,4.2
		l4.2-4.2c0.4-0.4,1-0.4,1.4,0s0.4,1,0,1.4L25.4,24L29.7,28.2z"/>
</g>
</svg>
