<?xml version="1.0" encoding="utf-8"?>
<!-- Generator: Adobe Illustrator 21.1.0, SVG Export Plug-In . SVG Version: 6.00 Build 0)  -->
<svg version="1.1" xmlns="http://www.w3.org/2000/svg" xmlns:xlink="http://www.w3.org/1999/xlink" x="0px" y="0px"
	 viewBox="0 0 48 48" style="enable-background:new 0 0 48 48;" xml:space="preserve">
<style type="text/css">
	.st0{display:none;}
	.st1{display:inline;opacity:0.3;}
	.st2{fill:#FF3A40;}
	.st3{fill:none;stroke:#000000;stroke-width:2;stroke-linecap:round;stroke-linejoin:round;stroke-miterlimit:10;}
	.st4{fill:none;stroke:#000000;stroke-width:2;stroke-linecap:round;stroke-miterlimit:10;}
	.st5{fill:none;stroke:#000000;stroke-width:2;stroke-miterlimit:10;}
	.st6{fill:none;stroke:#000000;stroke-width:2;stroke-linejoin:round;stroke-miterlimit:10;}
	.st7{fill:none;}
</style>
<g id="Layer_1" class="st0">
</g>
<g id="guide" class="st0">
	<g class="st1">
		<rect x="8" y="8" class="st2" width="32" height="32"/>
	</g>
</g>
<g id="icon">
	<path class="st3" d="M26.4,20.6l7.5,0c1.8,0,3.9,1.1,4.1,2.9c0,0,0,0,0,0c0,1,1,1.9,0,2.9h-1"/>
	<path class="st3" d="M38,26.4c0,0,1,1,1,2.9c0,0,0,1-1.9,1"/>
	<path class="st3" d="M37.7,30.2c0,0,0.3,1,0.3,2c0,0-1,1.9-2.9,2.9c0,0,0,1.9-1.9,2.9h-12c-2.1,0-3.2-1-4.4-2.8l-0.1-0.1V23.5h1.9
		c0,0,1-2.9,1.9-4.8s1.9-4.8,1.9-5.8s0-1.9,0-1.9s0-1.9,1.9-1s3.9,2.9,3.9,5.8c0,0,0,2.9,0,4.8"/>
	<path class="st3" d="M15.8,37H11c-0.6,0-1-0.5-1-1V23.5c0-0.5,0.4-1,1-1h4.8c0.5,0,1,0.5,1,1V36C16.8,36.6,16.3,37,15.8,37z"/>
</g>
</svg>
