<?xml version="1.0" encoding="utf-8"?>
<!-- Generator: Adobe Illustrator 21.1.0, SVG Export Plug-In . SVG Version: 6.00 Build 0)  -->
<svg version="1.1" xmlns="http://www.w3.org/2000/svg" xmlns:xlink="http://www.w3.org/1999/xlink" x="0px" y="0px"
	 viewBox="0 0 48 48" style="enable-background:new 0 0 48 48;" xml:space="preserve">
<style type="text/css">
	.st0{display:none;}
	.st1{display:inline;opacity:0.3;}
	.st2{fill:#FF3A40;}
	.st3{fill:none;stroke:#000000;stroke-width:2;stroke-linecap:round;stroke-linejoin:round;stroke-miterlimit:10;}
	.st4{fill:none;stroke:#000000;stroke-width:2;stroke-linecap:round;stroke-miterlimit:10;}
	.st5{fill:none;stroke:#000000;stroke-width:2;stroke-miterlimit:10;}
	.st6{fill:none;stroke:#000000;stroke-width:2;stroke-linejoin:round;stroke-miterlimit:10;}
	.st7{fill:none;}
</style>
<g id="Layer_1" class="st0">
</g>
<g id="guide" class="st0">
	<g class="st1">
		<rect x="8" y="8" class="st2" width="32" height="32"/>
	</g>
</g>
<g id="icon">
	<rect x="23" y="17" width="2" height="21"/>
	<g>
		<path class="st6" d="M17.1,10.8c-0.9,1.1-0.6,3.1,0.8,4.1c1.4,1.1,2.7,1.1,2.7,1.1s3.3,0,3.3,0c0-1.9-1.1-4.1-2.6-5.3
			C20.4,9.9,18.2,9.5,17.1,10.8z"/>
		<path class="st6" d="M17.1,10.8c-0.9,1.1-0.6,3.1,0.8,4.1c1.4,1.1,2.7,1.1,2.7,1.1s3.3,0,3.3,0c0-1.9-1.1-4.1-2.6-5.3
			C20.4,9.9,18.2,9.5,17.1,10.8z"/>
		<path class="st6" d="M30.8,10.8c0.9,1.1,0.6,3.1-0.8,4.1C28.5,16,27.3,16,27.3,16S24,16,24,16c0-1.9,1.1-4.1,2.6-5.3
			C27.6,9.9,29.7,9.5,30.8,10.8z"/>
		<path class="st6" d="M30.8,10.8c0.9,1.1,0.6,3.1-0.8,4.1C28.5,16,27.3,16,27.3,16S24,16,24,16c0-1.9,1.1-4.1,2.6-5.3
			C27.6,9.9,29.7,9.5,30.8,10.8z"/>
	</g>
	<path class="st3" d="M12,26v9.2c0,2.1,1.8,3.8,4,3.8h17c2.2,0,3-1.7,3-3.8V26"/>
	<g>
		<path d="M37,18v3H11v-3H37 M37,16H11c-1.1,0-2,0.9-2,2v3c0,1.1,0.9,2,2,2h26c1.1,0,2-0.9,2-2v-3C39,16.9,38.1,16,37,16L37,16z"/>
	</g>
</g>
</svg>
