<?xml version="1.0" encoding="utf-8"?>
<!-- Generator: Adobe Illustrator 21.1.0, SVG Export Plug-In . SVG Version: 6.00 Build 0)  -->
<svg version="1.1" xmlns="http://www.w3.org/2000/svg" xmlns:xlink="http://www.w3.org/1999/xlink" x="0px" y="0px"
	 viewBox="0 0 48 48" style="enable-background:new 0 0 48 48;" xml:space="preserve">
<style type="text/css">
	.st0{display:none;}
	.st1{display:inline;opacity:0.3;}
	.st2{fill:#FF3A40;}
	.st3{fill:none;stroke:#000000;stroke-width:2;stroke-linecap:round;stroke-linejoin:round;stroke-miterlimit:10;}
	.st4{fill:none;stroke:#000000;stroke-width:2;stroke-linecap:round;stroke-miterlimit:10;}
	.st5{fill:none;stroke:#000000;stroke-width:2;stroke-miterlimit:10;}
	.st6{fill:none;stroke:#000000;stroke-width:2;stroke-linejoin:round;stroke-miterlimit:10;}
	.st7{fill:none;}
</style>
<g id="Layer_1" class="st0">
</g>
<g id="guide" class="st0">
	<g class="st1">
		<rect x="8" y="8" class="st2" width="32" height="32"/>
	</g>
</g>
<g id="icon">
	<path d="M31,19c-0.6,0-1,0.4-1,1s0.4,1,1,1c6.9,0,7,6.7,7,7v4h-3.3h0h-2H16h0h-2h-1.8c-0.6,0-1,0.4-1,1c0,0.5,0.4,0.9,0.8,1
		c0,0,0,0,0,0c0,1.7,1.3,3,3,3c1.6,0,2.9-1.3,3-2.8c0-0.1,0-0.1,0-0.2h12.7c0,1.7,1.3,3,3,3c1.6,0,2.9-1.3,3-2.8c0-0.1,0-0.1,0-0.2
		H39c0.6,0,1-0.4,1-1v-5C40,24.9,38.1,19,31,19z M15,35c-0.6,0-1-0.4-1-1h2C16,34.6,15.6,35,15,35z M33.7,35c-0.6,0-1-0.4-1-1h2
		C34.7,34.6,34.2,35,33.7,35z"/>
	<g>
		<path d="M24.1,14h-12c-2.2,0-4,1.8-4,4v12c0,2.2,1.8,4,4,4h12c2.2,0,4,0.3,4-1.9V18C28.1,15.8,26.3,14,24.1,14z M18.8,28.9v0.8
			c0,0.4-0.3,0.7-0.7,0.7c-0.4,0-0.6-0.3-0.6-0.7v-0.8c-1.4-0.2-2.4-0.9-2.9-1.7c-0.1-0.1-0.1-0.3-0.1-0.4c0-0.4,0.3-0.8,0.7-0.8
			c0.3,0,0.5,0.2,0.6,0.3c0.6,0.6,1.3,1.1,2.3,1.1c1.3,0,1.9-0.4,1.9-1.3c0-2-5.1-1.1-5.1-4.5c0-1.2,0.8-2.3,2.6-2.5v-0.8
			c0-0.4,0.3-0.7,0.6-0.7c0.4,0,0.7,0.3,0.7,0.7v0.8c1.1,0.1,2,0.6,2.5,1.3c0.1,0.1,0.1,0.3,0.1,0.4c0,0.4-0.3,0.7-0.8,0.7
			c-0.2,0-0.4-0.1-0.6-0.3c-0.4-0.4-1.2-0.7-2-0.7c-1.2,0-1.6,0.5-1.6,1.1c0,1.8,5.1,1,5.1,4.5C21.6,27.7,20.6,28.7,18.8,28.9z"/>
	</g>
</g>
</svg>
