<?xml version="1.0" encoding="utf-8"?>
<!-- Generator: Adobe Illustrator 21.1.0, SVG Export Plug-In . SVG Version: 6.00 Build 0)  -->
<svg version="1.1" xmlns="http://www.w3.org/2000/svg" xmlns:xlink="http://www.w3.org/1999/xlink" x="0px" y="0px"
	 viewBox="0 0 48 48" style="enable-background:new 0 0 48 48;" xml:space="preserve">
<style type="text/css">
	.st0{display:none;}
	.st1{display:inline;opacity:0.3;}
	.st2{fill:#FF3A40;}
	.st3{fill:none;stroke:#000000;stroke-width:2;stroke-linecap:round;stroke-linejoin:round;stroke-miterlimit:10;}
	.st4{fill:none;stroke:#000000;stroke-width:2;stroke-linecap:round;stroke-miterlimit:10;}
	.st5{fill:none;stroke:#000000;stroke-width:2;stroke-miterlimit:10;}
	.st6{fill:none;stroke:#000000;stroke-width:2;stroke-linejoin:round;stroke-miterlimit:10;}
	.st7{fill:none;}
</style>
<g id="Layer_1" class="st0">
</g>
<g id="guide" class="st0">
	<g class="st1">
		<rect x="8" y="8" class="st2" width="32" height="32"/>
	</g>
</g>
<g id="icon">
	<g>
		<path d="M21.6,13c-0.9,0-2,0.8-2,1.7h0v11.1c0,0.4-0.5,0.6-0.8,0.3l-2.1-1.9c-0.6-0.6-1.9-0.9-2.7-0.4c-0.3,0.2-0.3,0.3-0.5,0.5
			c-1,1.3,0.1,2.9,0.1,2.9s4.5,5.6,5.6,7.4c0.8,1.3,1.1,3.3,1.1,3.3v2.2l11.8,0v-1.3c0-1,0.3-1.6,1.4-4.2c1.1-2.5,1.3-4.4,1.3-4.4
			s0-4.3,0-5.5c0-1.3-1-1.9-1-1.9c-1.2-0.4-2.3,0.6-2.3,0.6c-0.2-0.8-0.7-1.9-1.8-2c-1.1-0.1-2.1,0.3-2.1,0.3
			c-0.5-1.3-1.7-1.3-1.7-1.3c-1.6,0-2.2,1.1-2.2,1.1c0,0,0-4.5,0-6.1c0-0.8-0.3-1.5-0.9-1.9C22.5,13.2,22.1,13,21.6,13z"/>
	</g>
	<path d="M16.7,21.4c-0.2,0-0.5-0.1-0.6-0.2c-1.7-1.4-2.7-3.5-2.7-5.7c0-4.1,3.4-7.5,7.5-7.5s7.5,3.4,7.5,7.5c0,0.6-0.4,1-1,1
		s-1-0.4-1-1c0-3-2.5-5.5-5.5-5.5s-5.5,2.5-5.5,5.5c0,1.6,0.7,3.1,2,4.2c0.4,0.4,0.5,1,0.1,1.4C17.3,21.3,17,21.4,16.7,21.4z"/>
</g>
</svg>
