<?xml version="1.0" encoding="utf-8"?>
<!-- Generator: Adobe Illustrator 21.1.0, SVG Export Plug-In . SVG Version: 6.00 Build 0)  -->
<svg version="1.1" xmlns="http://www.w3.org/2000/svg" xmlns:xlink="http://www.w3.org/1999/xlink" x="0px" y="0px"
	 viewBox="0 0 48 48" style="enable-background:new 0 0 48 48;" xml:space="preserve">
<style type="text/css">
	.st0{display:none;}
	.st1{display:inline;opacity:0.3;}
	.st2{fill:#FF3A40;}
	.st3{fill:none;stroke:#000000;stroke-width:2;stroke-linecap:round;stroke-linejoin:round;stroke-miterlimit:10;}
	.st4{fill:none;stroke:#000000;stroke-width:2;stroke-linecap:round;stroke-miterlimit:10;}
	.st5{fill:none;stroke:#000000;stroke-width:2;stroke-miterlimit:10;}
	.st6{font-family:'Bariol-Bold';}
	.st7{font-size:14px;}
	.st8{fill:none;stroke:#000000;stroke-width:2;stroke-linejoin:round;stroke-miterlimit:10;}
	.st9{fill:none;}
</style>
<g id="Layer_1" class="st0">
</g>
<g id="guide" class="st0">
	<g class="st1">
		<rect x="8" y="8" class="st2" width="32" height="32"/>
	</g>
</g>
<g id="icon">
	<path class="st3" d="M12.2,33H39v-5c0,0,0-8-8-8"/>
	<g>
		<path d="M16,34L16,34 M16,34c0,0.6-0.4,1-1,1s-1-0.4-1-1H16 M16,32L16,32h-2c-1.1,0-2,0.9-2,2c0,1.7,1.3,3,3,3
			c1.6,0,2.9-1.3,3-2.8c0-0.1,0-0.1,0-0.2C18,32.9,17.1,32,16,32L16,32z M16,36L16,36L16,36L16,36z"/>
	</g>
	<g>
		<path d="M34.7,34L34.7,34 M34.7,34c0,0.6-0.4,1-1,1c-0.6,0-1-0.4-1-1H34.7 M34.7,32L34.7,32h-2c-1.1,0-2,0.9-2,2c0,1.7,1.3,3,3,3
			c1.6,0,2.9-1.3,3-2.8c0-0.1,0-0.1,0-0.2C36.7,32.9,35.8,32,34.7,32L34.7,32z M34.7,36L34.7,36L34.7,36L34.7,36z"/>
	</g>
	<text transform="matrix(1 0 0 1 14.0492 27.9242)" class="st6 st7">$</text>
	<g>
		<path d="M24.1,16c1.1,0,2,0.9,2,2v12c0,1.1-0.9,2-2,2h-12c-1.1,0-2-0.9-2-2V18c0-1.1,0.9-2,2-2H24.1 M24.1,14h-12
			c-2.2,0-4,1.8-4,4v12c0,2.2,1.8,4,4,4h12c2.2,0,4-1.8,4-4V18C28.1,15.8,26.3,14,24.1,14L24.1,14z"/>
	</g>
</g>
</svg>
