<?xml version="1.0" encoding="utf-8"?>
<!-- Generator: Adobe Illustrator 21.1.0, SVG Export Plug-In . SVG Version: 6.00 Build 0)  -->
<svg version="1.1" xmlns="http://www.w3.org/2000/svg" xmlns:xlink="http://www.w3.org/1999/xlink" x="0px" y="0px"
	 viewBox="0 0 48 48" style="enable-background:new 0 0 48 48;" xml:space="preserve">
<style type="text/css">
	.st0{display:none;}
	.st1{display:inline;opacity:0.3;}
	.st2{fill:#FF3A40;}
	.st3{fill:none;stroke:#000000;stroke-width:2;stroke-linecap:round;stroke-linejoin:round;stroke-miterlimit:10;}
	.st4{fill:none;stroke:#000000;stroke-width:2;stroke-linecap:round;stroke-miterlimit:10;}
	.st5{fill:none;stroke:#000000;stroke-width:2;stroke-miterlimit:10;}
	.st6{fill:none;stroke:#000000;stroke-width:2;stroke-linejoin:round;stroke-miterlimit:10;}
	.st7{fill:none;}
</style>
<g id="Layer_1" class="st0">
</g>
<g id="guide" class="st0">
	<g class="st1">
		<rect x="8" y="8" class="st2" width="32" height="32"/>
	</g>
</g>
<g id="icon">
	<g>
		<circle cx="24" cy="10" r="1.9"/>
	</g>
	<g>
		<path d="M22.2,35.8c-1.1,0-1.9,0-1.9,0c0,2,1.6,3.7,3.7,3.7s3.7-1.6,3.7-3.7C27.6,35.8,24.4,35.8,22.2,35.8L22.2,35.8z"/>
	</g>
	<g>
		<g>
			<path d="M37.9,34.6c-0.4-1.2-2.4-3.3-2.7-5.3c-0.5-4-0.4-6.6-0.5-8.6c0-0.1,0-0.1,0-0.2c-0.2-5.8-4.9-10.4-10.7-10.4
				c-5.9,0-10.6,4.7-10.7,10.6c0,0,0,0,0,0c0,0,0,0.1,0,0.1c0,0,0,0,0,0c0,0,0,0,0,0c-0.1,2.1,0,4.5-0.5,8.5c-0.3,2-2.3,4.1-2.7,5.3
				c-0.3,0.9,0.4,1.7,1.3,1.7h11.4h2.5h11.4C37.5,36.4,38.2,35.5,37.9,34.6z M29,20c-0.6,0-1-0.4-1-1c0-1.1-0.9-2-2-2
				c-0.6,0-1-0.4-1-1s0.4-1,1-1c2.2,0,4,1.8,4,4C30,19.6,29.6,20,29,20z"/>
		</g>
	</g>
</g>
</svg>
