<?xml version="1.0" encoding="utf-8"?>
<!-- Generator: Adobe Illustrator 21.1.0, SVG Export Plug-In . SVG Version: 6.00 Build 0)  -->
<svg version="1.1" xmlns="http://www.w3.org/2000/svg" xmlns:xlink="http://www.w3.org/1999/xlink" x="0px" y="0px"
	 viewBox="0 0 48 48" style="enable-background:new 0 0 48 48;" xml:space="preserve">
<style type="text/css">
	.st0{display:none;}
	.st1{display:inline;opacity:0.3;}
	.st2{fill:#FF3A40;}
	.st3{fill:none;stroke:#000000;stroke-width:2;stroke-linecap:round;stroke-linejoin:round;stroke-miterlimit:10;}
	.st4{fill:none;stroke:#000000;stroke-width:2;stroke-linecap:round;stroke-miterlimit:10;}
	.st5{fill:none;stroke:#000000;stroke-width:2;stroke-miterlimit:10;}
	.st6{fill:none;stroke:#000000;stroke-width:2;stroke-linejoin:round;stroke-miterlimit:10;}
	.st7{fill:none;}
</style>
<g id="Layer_1" class="st0">
</g>
<g id="guide" class="st0">
	<g class="st1">
		<rect x="8" y="8" class="st2" width="32" height="32"/>
	</g>
</g>
<g id="icon">
	<g>
		<path d="M36,14c1.1,0,2,0.9,2,2v17c0,1.1-0.9,2-2,2h-3.2l-1.4-1.4C31.1,33.2,30.5,33,30,33c-0.5,0-1.1,0.2-1.4,0.6L27.2,35H12
			c-1.1,0-2-0.9-2-2V16c0-1.1,0.9-2,2-2h15.2l1.4,1.4c0.4,0.4,0.9,0.6,1.4,0.6c0.5,0,1.1-0.2,1.4-0.6l1.4-1.4H36 M36,12h-4.1L30,14
			l-1.9-2H12c-2.2,0-4,1.8-4,4v17c0,2.2,1.8,4,4,4h16.1l1.9-2l1.9,2H36c2.2,0,4-1.8,4-4V16C40,13.8,38.2,12,36,12L36,12z"/>
	</g>
	<g>
		<g>
			<polygon points="31,19 29,19 29,21 31,21 31,19 			"/>
		</g>
		<g>
			<polygon points="31,22 29,22 29,24 31,24 31,22 			"/>
		</g>
		<g>
			<polygon points="31,25 29,25 29,27 31,27 31,25 			"/>
		</g>
		<g>
			<polygon points="31,28 29,28 29,30 31,30 31,28 			"/>
		</g>
	</g>
	<g>
		<g>
			<line class="st3" x1="23" y1="21" x2="16" y2="28"/>
		</g>
		<circle cx="16.5" cy="21.5" r="1.5"/>
		<circle cx="22.5" cy="27.5" r="1.5"/>
	</g>
</g>
</svg>
