<?xml version="1.0" encoding="utf-8"?>
<!-- Generator: Adobe Illustrator 21.1.0, SVG Export Plug-In . SVG Version: 6.00 Build 0)  -->
<svg version="1.1" xmlns="http://www.w3.org/2000/svg" xmlns:xlink="http://www.w3.org/1999/xlink" x="0px" y="0px"
	 viewBox="0 0 48 48" style="enable-background:new 0 0 48 48;" xml:space="preserve">
<style type="text/css">
	.st0{display:none;}
	.st1{display:inline;opacity:0.3;}
	.st2{fill:#FF3A40;}
	.st3{fill:none;stroke:#000000;stroke-width:2;stroke-linecap:round;stroke-linejoin:round;stroke-miterlimit:10;}
	.st4{fill:none;stroke:#000000;stroke-width:2;stroke-linecap:round;stroke-miterlimit:10;}
	.st5{fill:none;stroke:#000000;stroke-width:2;stroke-miterlimit:10;}
	.st6{fill:none;stroke:#000000;stroke-width:2;stroke-linejoin:round;stroke-miterlimit:10;}
	.st7{fill:none;}
</style>
<g id="Layer_1" class="st0">
</g>
<g id="guide" class="st0">
	<g class="st1">
		<rect x="8" y="8" class="st2" width="32" height="32"/>
	</g>
</g>
<g id="icon">
	<g>
		<path d="M31.6,11.6c1.2,0,2.8,0.3,4.2,1.7c1.4,1.4,2.2,3.2,2.2,5.2c0,2-0.8,3.8-2.2,5.2L24,35.6L12.2,23.8
			c-1.4-1.4-2.2-3.2-2.2-5.2c0-2,0.8-3.8,2.2-5.2c1.4-1.4,3.1-1.7,4.2-1.7c2.2,0,4.5,1,6.2,2.7l1.4,1.4l1.4-1.4
			C27.1,12.6,29.4,11.6,31.6,11.6 M31.6,9.6c-2.7,0-5.5,1.2-7.6,3.3c-2.1-2.1-4.9-3.3-7.6-3.3c-2.1,0-4.1,0.7-5.7,2.3
			c-3.7,3.7-3.7,9.6,0,13.3L24,38.4l13.3-13.3c3.7-3.7,3.7-9.6,0-13.3C35.7,10.3,33.7,9.6,31.6,9.6L31.6,9.6z"/>
	</g>
</g>
</svg>
