<?xml version="1.0" encoding="utf-8"?>
<!-- Generator: Adobe Illustrator 21.1.0, SVG Export Plug-In . SVG Version: 6.00 Build 0)  -->
<svg version="1.1" xmlns="http://www.w3.org/2000/svg" xmlns:xlink="http://www.w3.org/1999/xlink" x="0px" y="0px"
	 viewBox="0 0 48 48" style="enable-background:new 0 0 48 48;" xml:space="preserve">
<style type="text/css">
	.st0{display:none;}
	.st1{display:inline;opacity:0.3;}
	.st2{fill:#FF3A40;}
	.st3{fill:none;stroke:#000000;stroke-width:2;stroke-linecap:round;stroke-linejoin:round;stroke-miterlimit:10;}
	.st4{fill:none;stroke:#000000;stroke-width:2;stroke-linecap:round;stroke-miterlimit:10;}
	.st5{fill:none;stroke:#000000;stroke-width:2;stroke-miterlimit:10;}
	.st6{fill:none;stroke:#000000;stroke-width:2;stroke-linejoin:round;stroke-miterlimit:10;}
	.st7{fill:none;}
</style>
<g id="Layer_1" class="st0">
</g>
<g id="guide" class="st0">
	<g class="st1">
		<rect x="8" y="8" class="st2" width="32" height="32"/>
	</g>
</g>
<g id="icon">
	<g>
		<path d="M24,20c2.2,0,4,1.8,4,4s-1.8,4-4,4s-4-1.8-4-4S21.8,20,24,20 M24,18c-3.3,0-6,2.7-6,6s2.7,6,6,6s6-2.7,6-6S27.3,18,24,18
			L24,18z"/>
	</g>
	<g>
		<path d="M24,10c1,0,1.9,0.8,2,1.8c0.1,0.8,0.6,1.5,1.4,1.7c0.6,0.2,1.1,0.4,1.7,0.7c0.3,0.1,0.6,0.2,0.9,0.2
			c0.5,0,0.9-0.2,1.3-0.5c0.4-0.3,0.8-0.5,1.3-0.5c0.5,0,1,0.2,1.4,0.6c0.7,0.7,0.8,1.9,0.1,2.7c-0.5,0.6-0.6,1.5-0.2,2.2
			c0.3,0.6,0.5,1.1,0.7,1.7c0.2,0.8,0.9,1.3,1.7,1.4c1,0.1,1.8,0.9,1.8,2s-0.8,1.9-1.8,2c-0.8,0.1-1.5,0.6-1.7,1.4
			c-0.2,0.6-0.4,1.1-0.7,1.7c-0.4,0.7-0.3,1.6,0.2,2.2c0.7,0.8,0.6,2-0.1,2.7c-0.4,0.4-0.9,0.6-1.4,0.6c-0.5,0-0.9-0.2-1.3-0.5
			c-0.4-0.3-0.8-0.5-1.3-0.5c-0.3,0-0.6,0.1-0.9,0.2c-0.6,0.3-1.1,0.5-1.7,0.7c-0.8,0.2-1.3,0.9-1.4,1.7c-0.1,1-0.9,1.8-2,1.8
			s-1.9-0.8-2-1.8c-0.1-0.8-0.6-1.5-1.4-1.7c-0.6-0.2-1.1-0.4-1.7-0.7c-0.3-0.1-0.6-0.2-0.9-0.2c-0.5,0-0.9,0.2-1.3,0.5
			c-0.4,0.3-0.8,0.5-1.3,0.5c-0.5,0-1-0.2-1.4-0.6c-0.7-0.7-0.8-1.9-0.1-2.7c0.5-0.6,0.6-1.5,0.2-2.2c-0.3-0.6-0.5-1.1-0.7-1.7
			c-0.2-0.8-0.9-1.3-1.7-1.4c-1-0.1-1.8-0.9-1.8-2s0.8-1.9,1.8-2c0.8-0.1,1.5-0.6,1.7-1.4c0.2-0.6,0.4-1.1,0.7-1.7
			c0.4-0.7,0.3-1.6-0.2-2.2c-0.7-0.8-0.6-2,0.1-2.7c0.4-0.4,0.9-0.6,1.4-0.6c0.5,0,0.9,0.2,1.3,0.5c0.4,0.3,0.8,0.5,1.3,0.5
			c0.3,0,0.6-0.1,0.9-0.2c0.6-0.3,1.1-0.5,1.7-0.7c0.8-0.2,1.3-0.9,1.4-1.7C22.1,10.8,23,10,24,10 M24,8c-2.1,0-3.8,1.6-4,3.6
			c-0.7,0.2-1.4,0.5-2,0.8c-0.7-0.6-1.7-0.9-2.6-0.9c-1,0-2,0.4-2.8,1.2c-1.5,1.5-1.5,3.8-0.2,5.4c-0.3,0.6-0.6,1.3-0.8,2
			c-2,0.2-3.6,1.9-3.6,4c0,2.1,1.6,3.8,3.6,4c0.2,0.7,0.5,1.4,0.8,2c-1.3,1.6-1.2,3.9,0.2,5.4c0.8,0.8,1.8,1.2,2.8,1.2
			c0.9,0,1.8-0.3,2.6-0.9c0.6,0.3,1.3,0.6,2,0.8c0.2,2,1.9,3.6,4,3.6s3.8-1.6,4-3.6c0.7-0.2,1.4-0.5,2-0.8c0.7,0.6,1.7,0.9,2.6,0.9
			c1,0,2-0.4,2.8-1.2c1.5-1.5,1.5-3.8,0.2-5.4c0.3-0.6,0.6-1.3,0.8-2c2-0.2,3.6-1.9,3.6-4c0-2.1-1.6-3.8-3.6-4
			c-0.2-0.7-0.5-1.4-0.8-2c1.3-1.6,1.2-3.9-0.2-5.4c-0.8-0.8-1.8-1.2-2.8-1.2c-0.9,0-1.8,0.3-2.6,0.9c-0.6-0.3-1.3-0.6-2-0.8
			C27.8,9.6,26.1,8,24,8L24,8z"/>
	</g>
</g>
</svg>
