<?xml version="1.0" encoding="utf-8"?>
<!-- Generator: Adobe Illustrator 21.1.0, SVG Export Plug-In . SVG Version: 6.00 Build 0)  -->
<svg version="1.1" xmlns="http://www.w3.org/2000/svg" xmlns:xlink="http://www.w3.org/1999/xlink" x="0px" y="0px"
	 viewBox="0 0 48 48" style="enable-background:new 0 0 48 48;" xml:space="preserve">
<style type="text/css">
	.st0{display:none;}
	.st1{display:inline;opacity:0.3;}
	.st2{fill:#FF3A40;}
	.st3{fill:none;stroke:#000000;stroke-width:2;stroke-linecap:round;stroke-linejoin:round;stroke-miterlimit:10;}
	.st4{fill:none;stroke:#000000;stroke-width:2;stroke-linecap:round;stroke-miterlimit:10;}
	.st5{fill:none;stroke:#000000;stroke-width:2;stroke-miterlimit:10;}
	.st6{fill:none;stroke:#000000;stroke-width:2;stroke-linejoin:round;stroke-miterlimit:10;}
	.st7{fill:none;}
</style>
<g id="Layer_1" class="st0">
</g>
<g id="guide" class="st0">
	<g class="st1">
		<rect x="8" y="8" class="st2" width="32" height="32"/>
	</g>
</g>
<g id="icon">
	<g>
		<path d="M34,10H14c-2.2,0-4,1.8-4,4v20c0,2.2,1.8,4,4,4h20c2.2,0,4-1.8,4-4V14C38,11.8,36.2,10,34,10z M33,31H20.6
			c-0.3,0.6-1,1-1.7,1s-1.4-0.4-1.7-1h-2.3c-0.6,0-1-0.4-1-1s0.4-1,1-1h2.3c0.3-0.6,1-1,1.7-1s1.4,0.4,1.7,1H33c0.6,0,1,0.4,1,1
			S33.5,31,33,31z M33,25h-2.3c-0.3,0.6-1,1-1.7,1s-1.4-0.4-1.7-1H14.9c-0.6,0-1-0.4-1-1s0.4-1,1-1h12.4c0.3-0.6,1-1,1.7-1
			s1.4,0.4,1.7,1H33c0.6,0,1,0.4,1,1S33.5,25,33,25z M33,19H20.6c-0.3,0.6-1,1-1.7,1s-1.4-0.4-1.7-1h-2.3c-0.6,0-1-0.4-1-1
			s0.4-1,1-1h2.3c0.3-0.6,1-1,1.7-1s1.4,0.4,1.7,1H33c0.6,0,1,0.4,1,1S33.5,19,33,19z"/>
	</g>
</g>
</svg>
