<?xml version="1.0" encoding="utf-8"?>
<!-- Generator: Adobe Illustrator 21.1.0, SVG Export Plug-In . SVG Version: 6.00 Build 0)  -->
<svg version="1.1" xmlns="http://www.w3.org/2000/svg" xmlns:xlink="http://www.w3.org/1999/xlink" x="0px" y="0px"
	 viewBox="0 0 48 48" style="enable-background:new 0 0 48 48;" xml:space="preserve">
<style type="text/css">
	.st0{display:none;}
	.st1{display:inline;opacity:0.3;}
	.st2{fill:#FF3A40;}
	.st3{fill:none;stroke:#000000;stroke-width:2;stroke-linecap:round;stroke-linejoin:round;stroke-miterlimit:10;}
	.st4{fill:none;stroke:#000000;stroke-width:2;stroke-linecap:round;stroke-miterlimit:10;}
	.st5{fill:none;stroke:#000000;stroke-width:2;stroke-miterlimit:10;}
	.st6{fill:none;stroke:#000000;stroke-width:2;stroke-linejoin:round;stroke-miterlimit:10;}
	.st7{fill:none;}
</style>
<g id="Layer_1" class="st0">
</g>
<g id="guide" class="st0">
	<g class="st1">
		<rect x="8" y="8" class="st2" width="32" height="32"/>
	</g>
</g>
<g id="icon">
	<g>
		<path d="M34,10h-6c0-1.1-0.8-2-1.8-2h-4.4c-1,0-1.8,0.9-1.8,2h-6c-2.2,0-4,1.8-4,4v4h2v17.6c0,2.4,2,4.4,4.4,4.4h15.3
			c2.4,0,4.4-2,4.4-4.4V18h2v-4C38,11.8,36.2,10,34,10z M20,34c0,0.6-0.4,1-1,1s-1-0.4-1-1V22c0-0.6,0.4-1,1-1s1,0.4,1,1V34z M25,34
			c0,0.6-0.4,1-1,1s-1-0.4-1-1V22c0-0.6,0.4-1,1-1s1,0.4,1,1V34z M30,34c0,0.6-0.4,1-1,1s-1-0.4-1-1V22c0-0.6,0.4-1,1-1s1,0.4,1,1
			V34z"/>
	</g>
</g>
</svg>
