<?xml version="1.0" encoding="utf-8"?>
<!-- Generator: Adobe Illustrator 21.1.0, SVG Export Plug-In . SVG Version: 6.00 Build 0)  -->
<svg version="1.1" xmlns="http://www.w3.org/2000/svg" xmlns:xlink="http://www.w3.org/1999/xlink" x="0px" y="0px"
	 viewBox="0 0 48 48" style="enable-background:new 0 0 48 48;" xml:space="preserve">
<style type="text/css">
	.st0{display:none;}
	.st1{display:inline;opacity:0.3;}
	.st2{fill:#FF3A40;}
	.st3{fill:none;stroke:#000000;stroke-width:2;stroke-linecap:round;stroke-linejoin:round;stroke-miterlimit:10;}
	.st4{fill:none;stroke:#000000;stroke-width:2;stroke-linecap:round;stroke-miterlimit:10;}
	.st5{fill:none;stroke:#000000;stroke-width:2;stroke-miterlimit:10;}
	.st6{fill:none;stroke:#000000;stroke-width:2;stroke-linejoin:round;stroke-miterlimit:10;}
	.st7{fill:none;}
</style>
<g id="Layer_1" class="st0">
</g>
<g id="guide" class="st0">
	<g class="st1">
		<rect x="8" y="8" class="st2" width="32" height="32"/>
	</g>
</g>
<g id="icon">
	<path class="st3" d="M21.8,14.1c-0.8,0-1.8,0.8-1.8,1.6h0v10.2c0,0.4-0.5,0.6-0.7,0.3l-1.9-1.7c-0.6-0.6-1.8-0.8-2.5-0.4
		c-0.3,0.2-0.3,0.2-0.4,0.4c-1,1.2,0.1,2.6,0.1,2.6s4.1,5.1,5.2,6.8c0.8,1.2,1,3.1,1,3.1v2l10.8,0v-1.2c0-1,0.3-1.5,1.3-3.8
		c1-2.3,1.2-4,1.2-4s0-3.9,0-5.1c0-1.2-1-1.8-1-1.8c-1.1-0.4-2.1,0.5-2.1,0.5c-0.2-0.7-0.6-1.7-1.7-1.8c-1-0.1-1.9,0.3-1.9,0.3
		c-0.5-1.2-1.6-1.2-1.6-1.2c-1.5,0-2,1-2,1c0,0,0-4.2,0-5.6c0-0.7-0.3-1.4-0.8-1.8C22.7,14.2,22.3,14.1,21.8,14.1z"/>
	<path class="st3" d="M16.7,20.4c-1.4-1.2-2.3-3-2.3-5c0-3.6,2.9-6.5,6.5-6.5s6.5,2.9,6.5,6.5"/>
</g>
</svg>
