<?xml version="1.0" encoding="utf-8"?>
<!-- Generator: Adobe Illustrator 21.1.0, SVG Export Plug-In . SVG Version: 6.00 Build 0)  -->
<svg version="1.1" xmlns="http://www.w3.org/2000/svg" xmlns:xlink="http://www.w3.org/1999/xlink" x="0px" y="0px"
	 viewBox="0 0 48 48" style="enable-background:new 0 0 48 48;" xml:space="preserve">
<style type="text/css">
	.st0{display:none;}
	.st1{display:inline;opacity:0.3;}
	.st2{fill:#FF3A40;}
	.st3{fill:none;stroke:#000000;stroke-width:2;stroke-linecap:round;stroke-linejoin:round;stroke-miterlimit:10;}
	.st4{fill:none;stroke:#000000;stroke-width:2;stroke-linecap:round;stroke-miterlimit:10;}
	.st5{fill:none;stroke:#000000;stroke-width:2;stroke-miterlimit:10;}
	.st6{fill:none;stroke:#000000;stroke-width:2;stroke-linejoin:round;stroke-miterlimit:10;}
	.st7{fill:none;}
</style>
<g id="Layer_1" class="st0">
</g>
<g id="guide" class="st0">
	<g class="st1">
		<rect x="8" y="8" class="st2" width="32" height="32"/>
	</g>
</g>
<g id="icon">
	<path d="M28.3,9.8c-0.8-0.4-1.7-0.4-2.5,0l-11,7c-0.5,0.3-0.8,0.7-1,1.2h-2.7c-1.1,0-2,0.9-2,2v8c0,1.1,0.9,2,2,2h2.7
		c0.2,0.5,0.6,0.9,1,1.2l11,7l0,0c0.4,0.2,0.8,0.3,1.2,0.3c0.4,0,0.8-0.1,1.2-0.3c0.8-0.5,1.3-1.3,1.3-2.2V12
		C29.6,11.1,29.1,10.3,28.3,9.8z"/>
	<line class="st3" x1="33.1" y1="24" x2="39.1" y2="24"/>
	<line class="st3" x1="33.1" y1="29" x2="38.1" y2="32"/>
	<line class="st3" x1="33.1" y1="19" x2="38.1" y2="16"/>
</g>
</svg>
