<?xml version="1.0" encoding="utf-8"?>
<!-- Generator: Adobe Illustrator 21.1.0, SVG Export Plug-In . SVG Version: 6.00 Build 0)  -->
<svg version="1.1" xmlns="http://www.w3.org/2000/svg" xmlns:xlink="http://www.w3.org/1999/xlink" x="0px" y="0px"
	 viewBox="0 0 48 48" style="enable-background:new 0 0 48 48;" xml:space="preserve">
<style type="text/css">
	.st0{display:none;}
	.st1{display:inline;opacity:0.3;}
	.st2{fill:#FF3A40;}
	.st3{fill:none;stroke:#000000;stroke-width:2;stroke-linecap:round;stroke-linejoin:round;stroke-miterlimit:10;}
	.st4{fill:none;stroke:#000000;stroke-width:2;stroke-linecap:round;stroke-miterlimit:10;}
	.st5{fill:none;stroke:#000000;stroke-width:2;stroke-miterlimit:10;}
	.st6{fill:none;stroke:#000000;stroke-width:2;stroke-linejoin:round;stroke-miterlimit:10;}
	.st7{fill:none;}
</style>
<g id="Layer_1" class="st0">
</g>
<g id="guide" class="st0">
	<g class="st1">
		<rect x="8" y="8" class="st2" width="32" height="32"/>
	</g>
</g>
<g id="icon">
	<g>
		<path d="M24,10c7.7,0,14,6.3,14,14c0,7.7-6.3,14-14,14s-14-6.3-14-14C10,16.3,16.3,10,24,10 M24,8C15.1,8,8,15.2,8,24
			c0,8.8,7.2,16,16,16c8.8,0,16-7.2,16-16C40,15.2,32.8,8,24,8L24,8z"/>
	</g>
	<path class="st4" d="M19.9,21c0-2.4,2.1-4.3,4.6-3.8c1.8,0.3,3.2,2,3.2,3.8c0,1.4-0.7,2.7-1.8,3.4c-1.2,0.7-1.9,2.1-1.9,3.5v1.1"/>
	<path d="M24,33L24,33c-0.6,0-1-0.4-1-1V32c0-0.5,0.4-1,1-1H24c0.5,0,1,0.4,1,1V32C25,32.6,24.6,33,24,33z"/>
</g>
</svg>
