<?xml version="1.0" encoding="utf-8"?>
<!-- Generator: Adobe Illustrator 21.1.0, SVG Export Plug-In . SVG Version: 6.00 Build 0)  -->
<svg version="1.1" xmlns="http://www.w3.org/2000/svg" xmlns:xlink="http://www.w3.org/1999/xlink" x="0px" y="0px"
	 viewBox="0 0 48 48" style="enable-background:new 0 0 48 48;" xml:space="preserve">
<style type="text/css">
	.st0{display:none;}
	.st1{display:inline;opacity:0.3;}
	.st2{fill:#FF3A40;}
	.st3{fill:none;stroke:#000000;stroke-width:2;stroke-linecap:round;stroke-linejoin:round;stroke-miterlimit:10;}
	.st4{fill:none;stroke:#000000;stroke-width:2;stroke-linecap:round;stroke-miterlimit:10;}
	.st5{fill:none;stroke:#000000;stroke-width:2;stroke-miterlimit:10;}
	.st6{fill:none;stroke:#000000;stroke-width:2;stroke-linejoin:round;stroke-miterlimit:10;}
	.st7{fill:none;}
</style>
<g id="Layer_1" class="st0">
</g>
<g id="guide" class="st0">
	<g class="st1">
		<rect x="8" y="8" class="st2" width="32" height="32"/>
	</g>
</g>
<g id="icon">
	<polyline class="st3" points="18,17 38,17 34,31 17,31 12,11 10,11 	"/>
	<g>
		<path d="M19,34c0.6,0,1,0.4,1,1s-0.4,1-1,1s-1-0.4-1-1S18.4,34,19,34 M19,32c-1.7,0-3,1.3-3,3s1.3,3,3,3s3-1.3,3-3S20.7,32,19,32
			L19,32z"/>
	</g>
	<g>
		<path d="M32,34c0.6,0,1,0.4,1,1s-0.4,1-1,1s-1-0.4-1-1S31.4,34,32,34 M32,32c-1.7,0-3,1.3-3,3s1.3,3,3,3s3-1.3,3-3S33.7,32,32,32
			L32,32z"/>
	</g>
</g>
</svg>
