<?xml version="1.0" encoding="utf-8"?>
<!-- Generator: Adobe Illustrator 21.1.0, SVG Export Plug-In . SVG Version: 6.00 Build 0)  -->
<svg version="1.1" xmlns="http://www.w3.org/2000/svg" xmlns:xlink="http://www.w3.org/1999/xlink" x="0px" y="0px"
	 viewBox="0 0 48 48" style="enable-background:new 0 0 48 48;" xml:space="preserve">
<style type="text/css">
	.st0{display:none;}
	.st1{display:inline;opacity:0.3;}
	.st2{fill:#FF3A40;}
	.st3{fill:none;stroke:#000000;stroke-width:2;stroke-linecap:round;stroke-linejoin:round;stroke-miterlimit:10;}
	.st4{fill:none;stroke:#000000;stroke-width:2;stroke-linecap:round;stroke-miterlimit:10;}
	.st5{fill:none;stroke:#000000;stroke-width:2;stroke-miterlimit:10;}
	.st6{fill:none;stroke:#000000;stroke-width:2;stroke-linejoin:round;stroke-miterlimit:10;}
	.st7{fill:none;}
</style>
<g id="Layer_1" class="st0">
</g>
<g id="guide" class="st0">
	<g class="st1">
		<rect x="8" y="8" class="st2" width="32" height="32"/>
	</g>
</g>
<g id="icon">
	<g>
		<path d="M35,10H13c-2.2,0-4,1.8-4,4v16v8c0,0.2,0,0.3,0.1,0.5c0,0,0,0.1,0.1,0.1c0.1,0.1,0.1,0.2,0.2,0.3c0,0,0,0.1,0.1,0.1
			c0.1,0.1,0.2,0.2,0.4,0.2c0,0,0,0,0,0c0.1,0,0.2,0.1,0.4,0.1c0,0,0,0,0.1,0c0,0,0,0,0.1,0c0.1,0,0.2,0,0.3-0.1c0,0,0.1,0,0.1,0
			c0.1-0.1,0.3-0.1,0.4-0.2L17,34h18c2.2,0,4-1.8,4-4V14C39,11.8,37.2,10,35,10z M22.9,28h-7c-0.6,0-1-0.4-1-1s0.4-1,1-1h7
			c0.6,0,1,0.4,1,1S23.5,28,22.9,28z M29,23H16c-0.6,0-1-0.4-1-1s0.4-1,1-1h13c0.6,0,1,0.4,1,1S29.6,23,29,23z M32,18H16
			c-0.6,0-1-0.4-1-1s0.4-1,1-1h16c0.6,0,1,0.4,1,1S32.5,18,32,18z"/>
	</g>
</g>
</svg>
