<?xml version="1.0" encoding="utf-8"?>
<!-- Generator: Adobe Illustrator 21.1.0, SVG Export Plug-In . SVG Version: 6.00 Build 0)  -->
<svg version="1.1" xmlns="http://www.w3.org/2000/svg" xmlns:xlink="http://www.w3.org/1999/xlink" x="0px" y="0px"
	 viewBox="0 0 48 48" style="enable-background:new 0 0 48 48;" xml:space="preserve">
<style type="text/css">
	.st0{display:none;}
	.st1{display:inline;opacity:0.3;}
	.st2{fill:#FF3A40;}
	.st3{fill:none;stroke:#000000;stroke-width:2;stroke-linecap:round;stroke-linejoin:round;stroke-miterlimit:10;}
	.st4{fill:none;stroke:#000000;stroke-width:2;stroke-linecap:round;stroke-miterlimit:10;}
	.st5{fill:none;stroke:#000000;stroke-width:2;stroke-miterlimit:10;}
	.st6{fill:none;stroke:#000000;stroke-width:2;stroke-linejoin:round;stroke-miterlimit:10;}
	.st7{fill:none;}
</style>
<g id="Layer_1" class="st0">
</g>
<g id="guide" class="st0">
	<g class="st1">
		<rect x="8" y="8" class="st2" width="32" height="32"/>
	</g>
</g>
<g id="icon">
	<path class="st3" d="M28.5,23.8c-1.9-1.6-4.4-2.6-7.1-2.6c-5.9,0-10.3,4.5-10.8,10.3c0,0.6-0.1,1.2-0.2,1.8l-1.3,5.6"/>
	<circle class="st3" cx="21.4" cy="15.1" r="6.1"/>
	<g>
		<path d="M40,32c0-1-0.8-1.9-1.8-2c-0.1-0.3-0.3-0.7-0.4-1c0.7-0.8,0.6-1.9-0.1-2.7c-0.7-0.7-1.9-0.8-2.7-0.1
			c-0.3-0.2-0.6-0.3-1-0.4c-0.1-1-0.9-1.8-2-1.8s-1.9,0.8-2,1.8c-0.3,0.1-0.7,0.3-1,0.4c-0.8-0.7-1.9-0.6-2.7,0.1s-0.8,1.9-0.1,2.7
			c-0.2,0.3-0.3,0.6-0.4,1c-1,0.1-1.8,0.9-1.8,2c0,1,0.8,1.9,1.8,2c0.1,0.3,0.3,0.7,0.4,1c-0.7,0.8-0.6,1.9,0.1,2.7
			c0.7,0.7,1.9,0.8,2.7,0.1c0.3,0.2,0.6,0.3,1,0.4c0.1,1,0.9,1.8,2,1.8s1.9-0.8,2-1.8c0.3-0.1,0.7-0.3,1-0.4
			c0.8,0.7,1.9,0.6,2.7-0.1c0.7-0.7,0.8-1.9,0.1-2.7c0.2-0.3,0.3-0.6,0.4-1C39.2,33.9,40,33,40,32z M32,35c-1.7,0-3-1.3-3-3
			s1.3-3,3-3s3,1.3,3,3S33.7,35,32,35z"/>
	</g>
</g>
</svg>
