<?xml version="1.0" encoding="utf-8"?>
<!-- Generator: Adobe Illustrator 21.1.0, SVG Export Plug-In . SVG Version: 6.00 Build 0)  -->
<svg version="1.1" xmlns="http://www.w3.org/2000/svg" xmlns:xlink="http://www.w3.org/1999/xlink" x="0px" y="0px"
	 viewBox="0 0 48 48" style="enable-background:new 0 0 48 48;" xml:space="preserve">
<style type="text/css">
	.st0{display:none;}
	.st1{display:inline;opacity:0.3;}
	.st2{fill:#FF3A40;}
	.st3{fill:none;stroke:#000000;stroke-width:2;stroke-linecap:round;stroke-linejoin:round;stroke-miterlimit:10;}
	.st4{fill:none;stroke:#000000;stroke-width:2;stroke-linecap:round;stroke-miterlimit:10;}
	.st5{fill:none;stroke:#000000;stroke-width:2;stroke-miterlimit:10;}
	.st6{fill:none;stroke:#000000;stroke-width:2;stroke-linejoin:round;stroke-miterlimit:10;}
	.st7{fill:none;}
</style>
<g id="Layer_1" class="st0">
</g>
<g id="guide" class="st0">
	<g class="st1">
		<rect x="8" y="8" class="st2" width="32" height="32"/>
	</g>
</g>
<g id="icon">
	<path d="M21.9,12 M23.9,10h-9v13.2l4.6-3l4.4,3V10L23.9,10z"/>
	<path d="M37.9,38H13.8c-2.7,0-4.9-2.2-4.9-4.9v-0.3c0-2.7,2.2-4.9,4.9-4.9h24.1c0.6,0,1,0.4,1,1v8C38.9,37.6,38.5,38,37.9,38z
		 M13.8,30c-1.6,0-2.9,1.3-2.9,2.9v0.3c0,1.6,1.3,2.9,2.9,2.9h23.1v-6H13.8z"/>
	<path d="M9.9,35c-0.6,0-1-0.4-1-1V15.6c0-3.5,2-5.9,4.9-5.9h24.1c0.6,0,1,0.4,1,1l0,18.2c0,0.6-0.4,1-1,1s-1-0.4-1-1l0-17.2H13.8
		c-1.7,0-2.9,1.5-2.9,3.9V34C10.9,34.6,10.5,35,9.9,35z"/>
</g>
</svg>
