<?xml version="1.0" encoding="utf-8"?>
<!-- Generator: Adobe Illustrator 21.1.0, SVG Export Plug-In . SVG Version: 6.00 Build 0)  -->
<svg version="1.1" xmlns="http://www.w3.org/2000/svg" xmlns:xlink="http://www.w3.org/1999/xlink" x="0px" y="0px"
	 viewBox="0 0 48 48" style="enable-background:new 0 0 48 48;" xml:space="preserve">
<style type="text/css">
	.st0{display:none;}
	.st1{display:inline;opacity:0.3;}
	.st2{fill:#FF3A40;}
	.st3{fill:none;stroke:#000000;stroke-width:2;stroke-linecap:round;stroke-linejoin:round;stroke-miterlimit:10;}
	.st4{fill:none;stroke:#000000;stroke-width:2;stroke-linecap:round;stroke-miterlimit:10;}
	.st5{fill:none;stroke:#000000;stroke-width:2;stroke-miterlimit:10;}
	.st6{fill:none;stroke:#000000;stroke-width:2;stroke-linejoin:round;stroke-miterlimit:10;}
	.st7{fill:none;}
</style>
<g id="Layer_1" class="st0">
</g>
<g id="guide" class="st0">
	<g class="st1">
		<rect x="8" y="8" class="st2" width="32" height="32"/>
	</g>
</g>
<g id="icon">
	<path class="st3" d="M12.1,23v13.6c0,1.3,0.6,2.4,1.8,2.4l8.2,0v-9c0-1.3,0.8-2.1,2-2.1c1.2,0,2,0.8,2,2.1v9l7.9,0
		c1.2,0,2.2-1.1,2.2-2.4l0-13.6"/>
	<path class="st3" d="M13,10l-4,9.9c0,1.5,1.3,2.8,3,2.8c1.7,0,3-1.3,3-2.8c0,1.5,1.3,2.8,3,2.8c1.7,0,3-1.3,3-2.8
		c0,1.5,1.3,2.8,3,2.8c1.7,0,3-1.3,3-2.8c0,1.5,1.3,2.8,3,2.8c1.7,0,3-1.3,3-2.8c0,1.5,1.3,2.8,3,2.8c1.7,0,3-1.3,3-2.8L35,10L13,10
		z"/>
</g>
</svg>
