<?xml version="1.0" encoding="utf-8"?>
<!-- Generator: Adobe Illustrator 21.1.0, SVG Export Plug-In . SVG Version: 6.00 Build 0)  -->
<svg version="1.1" xmlns="http://www.w3.org/2000/svg" xmlns:xlink="http://www.w3.org/1999/xlink" x="0px" y="0px"
	 viewBox="0 0 48 48" style="enable-background:new 0 0 48 48;" xml:space="preserve">
<style type="text/css">
	.st0{display:none;}
	.st1{display:inline;opacity:0.3;}
	.st2{fill:#FF3A40;}
	.st3{fill:none;stroke:#000000;stroke-width:2;stroke-linecap:round;stroke-linejoin:round;stroke-miterlimit:10;}
	.st4{fill:none;stroke:#000000;stroke-width:2;stroke-linecap:round;stroke-miterlimit:10;}
	.st5{fill:none;stroke:#000000;stroke-width:2;stroke-miterlimit:10;}
	.st6{fill:none;stroke:#000000;stroke-width:2;stroke-linejoin:round;stroke-miterlimit:10;}
	.st7{fill:none;}
</style>
<g id="Layer_1" class="st0">
</g>
<g id="guide" class="st0">
	<g class="st1">
		<rect x="8" y="8" class="st2" width="32" height="32"/>
	</g>
</g>
<g id="icon">
	<path class="st3" d="M38.5,20L24.6,9.6c-0.4-0.3-0.9-0.3-1.3,0L9.5,20C9.2,20.2,9,20.5,9,20.9C9,21.5,9.2,22,9.8,22l3.3,0v13.6
		c0,1.3,0.6,2.4,1.8,2.4l7.2,0V28c0-1.3,0.8-2.1,2-2.1s2,0.8,2,2.1v10l6.9,0c1.2,0,2.2-1.1,2.2-2.4L35,22h2.8c0.6,0,1.1-0.5,1.1-1.1
		v0C38.9,20.5,38.8,20.2,38.5,20z"/>
</g>
</svg>
