<?xml version="1.0" encoding="utf-8"?>
<!-- Generator: Adobe Illustrator 21.1.0, SVG Export Plug-In . SVG Version: 6.00 Build 0)  -->
<svg version="1.1" xmlns="http://www.w3.org/2000/svg" xmlns:xlink="http://www.w3.org/1999/xlink" x="0px" y="0px"
	 viewBox="0 0 48 48" style="enable-background:new 0 0 48 48;" xml:space="preserve">
<style type="text/css">
	.st0{display:none;}
	.st1{display:inline;opacity:0.3;}
	.st2{fill:#FF3A40;}
	.st3{fill:none;stroke:#000000;stroke-width:2;stroke-linecap:round;stroke-linejoin:round;stroke-miterlimit:10;}
	.st4{fill:none;stroke:#000000;stroke-width:2;stroke-linecap:round;stroke-miterlimit:10;}
	.st5{fill:none;stroke:#000000;stroke-width:2;stroke-miterlimit:10;}
	.st6{fill:none;stroke:#000000;stroke-width:2;stroke-linejoin:round;stroke-miterlimit:10;}
	.st7{fill:none;}
</style>
<g id="Layer_1" class="st0">
</g>
<g id="guide" class="st0">
	<g class="st1">
		<rect x="8" y="8" class="st2" width="32" height="32"/>
	</g>
</g>
<g id="icon">
	<g>
		<path d="M38.9,31.8l-13-9.7c-0.3-0.3-0.6-0.4-1-0.6v-2.4c1.7-0.4,2.9-1.9,2.9-3.8c0-2.1-1.8-3.9-3.9-3.9s-3.9,1.7-3.9,3.9
			c0,0.6,0.4,1,1,1s1-0.4,1-1c0-1,0.9-1.9,1.9-1.9c1.1,0,1.9,0.8,1.9,1.9s-0.9,1.9-1.9,1.9c-0.6,0-1,0.4-1,1c0,0.1,0,0.1,0,0.2
			c0,0,0,0,0,0.1v2.9c-0.3,0.1-0.6,0.3-0.9,0.5L9.1,31.8c0,0,0,0-0.1,0.1c-0.9,0.8-1.2,2.1-0.8,3.2c0.4,1.2,1.5,1.9,2.7,1.9h26.1
			c1.2,0,2.3-0.7,2.7-1.9C40.2,33.9,39.9,32.7,38.9,31.8z"/>
	</g>
</g>
</svg>
