<?xml version="1.0" encoding="utf-8"?>
<!-- Generator: Adobe Illustrator 21.1.0, SVG Export Plug-In . SVG Version: 6.00 Build 0)  -->
<svg version="1.1" xmlns="http://www.w3.org/2000/svg" xmlns:xlink="http://www.w3.org/1999/xlink" x="0px" y="0px"
	 viewBox="0 0 48 48" style="enable-background:new 0 0 48 48;" xml:space="preserve">
<style type="text/css">
	.st0{display:none;}
	.st1{display:inline;opacity:0.3;}
	.st2{fill:#FF3A40;}
	.st3{fill:none;stroke:#000000;stroke-width:2;stroke-linecap:round;stroke-linejoin:round;stroke-miterlimit:10;}
	.st4{fill:none;stroke:#000000;stroke-width:2;stroke-linecap:round;stroke-miterlimit:10;}
	.st5{fill:none;stroke:#000000;stroke-width:2;stroke-miterlimit:10;}
	.st6{fill:none;stroke:#000000;stroke-width:2;stroke-linejoin:round;stroke-miterlimit:10;}
	.st7{fill:none;}
</style>
<g id="Layer_1" class="st0">
</g>
<g id="guide" class="st0">
	<g class="st1">
		<rect x="8" y="8" class="st2" width="32" height="32"/>
	</g>
</g>
<g id="icon">
	<g>
		<g>
			<path d="M34,12c1.1,0,2,0.9,2,2v20c0,1.1-0.9,2-2,2H14c-1.1,0-2-0.9-2-2V14c0-1.1,0.9-2,2-2H34 M34,10H14c-2.2,0-4,1.8-4,4v20
				c0,2.2,1.8,4,4,4h20c2.2,0,4-1.8,4-4V14C38,11.8,36.2,10,34,10L34,10z"/>
		</g>
		<line class="st3" x1="14.9" y1="24" x2="33" y2="24"/>
		<circle cx="29" cy="24" r="2"/>
		<line class="st3" x1="33" y1="30" x2="14.9" y2="30"/>
		<circle cx="18.9" cy="30" r="2"/>
		<line class="st3" x1="33" y1="18" x2="14.9" y2="18"/>
		<circle cx="18.9" cy="18" r="2"/>
	</g>
</g>
</svg>
