<?xml version="1.0" encoding="utf-8"?>
<!-- Generator: Adobe Illustrator 21.1.0, SVG Export Plug-In . SVG Version: 6.00 Build 0)  -->
<svg version="1.1" xmlns="http://www.w3.org/2000/svg" xmlns:xlink="http://www.w3.org/1999/xlink" x="0px" y="0px"
	 viewBox="0 0 48 48" style="enable-background:new 0 0 48 48;" xml:space="preserve">
<style type="text/css">
	.st0{display:none;}
	.st1{display:inline;opacity:0.3;}
	.st2{fill:#FF3A40;}
	.st3{fill:none;stroke:#000000;stroke-width:2;stroke-linecap:round;stroke-linejoin:round;stroke-miterlimit:10;}
	.st4{fill:none;stroke:#000000;stroke-width:2;stroke-linecap:round;stroke-miterlimit:10;}
	.st5{fill:none;stroke:#000000;stroke-width:2;stroke-miterlimit:10;}
	.st6{fill:none;stroke:#000000;stroke-width:2;stroke-linejoin:round;stroke-miterlimit:10;}
	.st7{fill:none;}
</style>
<g id="Layer_1" class="st0">
</g>
<g id="guide" class="st0">
	<g class="st1">
		<rect x="8" y="8" class="st2" width="32" height="32"/>
	</g>
</g>
<g id="icon">
	<path class="st3" d="M14,30h-3c-1.1,0-2-0.9-2-2v-8c0-1.1,0.9-2,2-2h3C14,18,14,29.8,14,30z"/>
	<path class="st3" d="M26,37.7l-11-7c-0.6-0.4-1-1-1-1.8V19c0-0.7,0.4-1.4,1-1.8l11-7c1.3-0.8,3,0.2,3,1.8v23.9
		C29,37.5,27.4,38.5,26,37.7z"/>
	<line class="st3" x1="33" y1="24" x2="39" y2="24"/>
	<line class="st3" x1="33" y1="29" x2="38" y2="32"/>
	<line class="st3" x1="33" y1="19" x2="38" y2="16"/>
</g>
</svg>
