<?xml version="1.0" encoding="utf-8"?>
<!-- Generator: Adobe Illustrator 21.1.0, SVG Export Plug-In . SVG Version: 6.00 Build 0)  -->
<svg version="1.1" xmlns="http://www.w3.org/2000/svg" xmlns:xlink="http://www.w3.org/1999/xlink" x="0px" y="0px"
	 viewBox="0 0 48 48" style="enable-background:new 0 0 48 48;" xml:space="preserve">
<style type="text/css">
	.st0{display:none;}
	.st1{display:inline;opacity:0.3;}
	.st2{fill:#FF3A40;}
	.st3{fill:none;stroke:#000000;stroke-width:2;stroke-linecap:round;stroke-linejoin:round;stroke-miterlimit:10;}
	.st4{fill:none;stroke:#000000;stroke-width:2;stroke-linecap:round;stroke-miterlimit:10;}
	.st5{fill:none;stroke:#000000;stroke-width:2;stroke-miterlimit:10;}
	.st6{fill:none;stroke:#000000;stroke-width:2;stroke-linejoin:round;stroke-miterlimit:10;}
	.st7{fill:none;}
</style>
<g id="Layer_1" class="st0">
</g>
<g id="guide" class="st0">
	<g class="st1">
		<rect x="8" y="8" class="st2" width="32" height="32"/>
	</g>
</g>
<g id="icon">
	<line class="st3" x1="16" y1="17" x2="32" y2="17"/>
	<line class="st3" x1="16" y1="22" x2="29" y2="22"/>
	<line class="st3" x1="15.9" y1="27" x2="22.9" y2="27"/>
	<g>
		<path d="M35,12c1.1,0,2,0.9,2,2v16c0,1.1-0.9,2-2,2H17c-0.5,0-0.9,0.2-1.3,0.5L11,36.4V30V14c0-1.1,0.9-2,2-2H35 M35,10H13
			c-2.2,0-4,1.8-4,4v16v8c0,0.7,0.6,1.2,1.2,1.2c0.3,0,0.6-0.1,0.9-0.4L17,34h18c2.2,0,4-1.8,4-4V14C39,11.8,37.2,10,35,10L35,10z"
			/>
	</g>
</g>
</svg>
