<?xml version="1.0" encoding="utf-8"?>
<!-- Generator: Adobe Illustrator 21.1.0, SVG Export Plug-In . SVG Version: 6.00 Build 0)  -->
<svg version="1.1" xmlns="http://www.w3.org/2000/svg" xmlns:xlink="http://www.w3.org/1999/xlink" x="0px" y="0px"
	 viewBox="0 0 48 48" style="enable-background:new 0 0 48 48;" xml:space="preserve">
<style type="text/css">
	.st0{display:none;}
	.st1{display:inline;opacity:0.3;}
	.st2{fill:#FF3A40;}
	.st3{fill:none;stroke:#000000;stroke-width:2;stroke-linecap:round;stroke-linejoin:round;stroke-miterlimit:10;}
	.st4{fill:none;stroke:#000000;stroke-width:2;stroke-linecap:round;stroke-miterlimit:10;}
	.st5{fill:none;stroke:#000000;stroke-width:2;stroke-miterlimit:10;}
	.st6{fill:none;stroke:#000000;stroke-width:2;stroke-linejoin:round;stroke-miterlimit:10;}
	.st7{fill:none;}
</style>
<g id="Layer_1" class="st0">
</g>
<g id="guide" class="st0">
	<g class="st1">
		<rect x="8" y="8" class="st2" width="32" height="32"/>
	</g>
</g>
<g id="icon">
	<g>
		<path d="M40,24c0-2.1-1.6-3.8-3.6-4c-0.2-0.7-0.5-1.4-0.8-2c1.3-1.6,1.2-3.9-0.2-5.4c-1.5-1.5-3.8-1.5-5.4-0.2
			c-0.6-0.3-1.3-0.6-2-0.8c-0.2-2-1.9-3.6-4-3.6s-3.8,1.6-4,3.6c-0.7,0.2-1.4,0.5-2,0.8c-1.6-1.3-3.9-1.2-5.4,0.2
			c-1.5,1.5-1.5,3.8-0.2,5.4c-0.3,0.6-0.6,1.3-0.8,2c-2,0.2-3.6,1.9-3.6,4c0,2.1,1.6,3.8,3.6,4c0.2,0.7,0.5,1.4,0.8,2
			c-1.3,1.6-1.2,3.9,0.2,5.4c1.5,1.5,3.8,1.5,5.4,0.2c0.6,0.3,1.3,0.6,2,0.8c0.2,2,1.9,3.6,4,3.6s3.8-1.6,4-3.6
			c0.7-0.2,1.4-0.5,2-0.8c1.6,1.3,3.9,1.2,5.4-0.2c1.5-1.5,1.5-3.8,0.2-5.4c0.3-0.6,0.6-1.3,0.8-2C38.4,27.8,40,26.1,40,24z M24,30
			c-3.3,0-6-2.7-6-6s2.7-6,6-6s6,2.7,6,6S27.3,30,24,30z"/>
	</g>
</g>
</svg>
