<?xml version="1.0" encoding="utf-8"?>
<!-- Generator: Adobe Illustrator 21.1.0, SVG Export Plug-In . SVG Version: 6.00 Build 0)  -->
<svg version="1.1" xmlns="http://www.w3.org/2000/svg" xmlns:xlink="http://www.w3.org/1999/xlink" x="0px" y="0px"
	 viewBox="0 0 48 48" style="enable-background:new 0 0 48 48;" xml:space="preserve">
<style type="text/css">
	.st0{display:none;}
	.st1{display:inline;opacity:0.3;}
	.st2{fill:#FF3A40;}
	.st3{fill:none;stroke:#000000;stroke-width:2;stroke-linecap:round;stroke-linejoin:round;stroke-miterlimit:10;}
	.st4{fill:none;stroke:#000000;stroke-width:2;stroke-linecap:round;stroke-miterlimit:10;}
	.st5{fill:none;stroke:#000000;stroke-width:2;stroke-miterlimit:10;}
	.st6{fill:none;stroke:#000000;stroke-width:2;stroke-linejoin:round;stroke-miterlimit:10;}
	.st7{fill:none;}
</style>
<g id="Layer_1" class="st0">
</g>
<g id="guide" class="st0">
	<g class="st1">
		<rect x="8" y="8" class="st2" width="32" height="32"/>
	</g>
</g>
<g id="icon">
	<g>
		<path d="M29.5,9H12.5C10.6,9,9,10.6,9,12.5v12.9v7c0,0.9,1.1,1.4,1.8,0.7l5.1-4.3h13.6c1.9,0,3.5-1.6,3.5-3.5V12.5
			C33,10.6,31.4,9,29.5,9z M21.5,24.7c-0.2,0.2-0.4,0.3-0.6,0.3c-0.2,0-0.4-0.1-0.6-0.3c-0.1-0.1-0.2-0.4-0.2-0.6s0.1-0.4,0.2-0.6
			c0.2-0.2,0.4-0.2,0.6-0.2c0.2,0,0.4,0.1,0.6,0.2c0.2,0.2,0.3,0.4,0.3,0.6S21.7,24.6,21.5,24.7z M23.6,18.9l-1.3,1.4
			c-0.3,0.3-0.5,0.8-0.5,1.4c-0.1,0.4-0.4,0.6-0.8,0.6c-0.4,0-0.7-0.3-0.8-0.6c0-0.9,0.3-1.8,0.8-2.4l1.4-1.5
			c0.3-0.3,0.4-0.7,0.4-1.1c0-0.9-0.7-1.7-1.7-1.7c-0.9,0-1.7,0.8-1.7,1.9c-0.1,0.3-0.4,0.6-0.8,0.6c-0.5,0-0.8-0.4-0.8-0.8
			c0-1.9,1.5-3.4,3.3-3.4s3.4,1.5,3.4,3.4C24.4,17.5,24.1,18.3,23.6,18.9z"/>
	</g>
	<path d="M37.2,39c-0.4,0-0.8-0.2-1.1-0.5l-2.6-2.2h-7.7c-1.7,0-3-1.4-3-3v-1.5c0-0.6,0.4-1,1-1s1,0.4,1,1v1.5c0,0.6,0.5,1,1,1h8.1
		c0.2,0,0.5,0.1,0.6,0.2l2.4,2v-9.3c0-0.6-0.5-1-1-1c-0.6,0-1-0.4-1-1s0.4-1,1-1c1.7,0,3,1.4,3,3v10.1c0,0.7-0.4,1.2-1,1.5
		C37.7,39,37.5,39,37.2,39z M37.4,37L37.4,37C37.4,37,37.4,37,37.4,37z"/>
</g>
</svg>
