<?xml version="1.0" encoding="utf-8"?>
<!-- Generator: Adobe Illustrator 21.1.0, SVG Export Plug-In . SVG Version: 6.00 Build 0)  -->
<svg version="1.1" xmlns="http://www.w3.org/2000/svg" xmlns:xlink="http://www.w3.org/1999/xlink" x="0px" y="0px"
	 viewBox="0 0 48 48" style="enable-background:new 0 0 48 48;" xml:space="preserve">
<style type="text/css">
	.st0{display:none;}
	.st1{display:inline;opacity:0.3;}
	.st2{fill:#FF3A40;}
	.st3{fill:none;stroke:#000000;stroke-width:2;stroke-linecap:round;stroke-linejoin:round;stroke-miterlimit:10;}
	.st4{fill:none;stroke:#000000;stroke-width:2;stroke-linecap:round;stroke-miterlimit:10;}
	.st5{fill:none;stroke:#000000;stroke-width:2;stroke-miterlimit:10;}
	.st6{fill:none;stroke:#000000;stroke-width:2;stroke-linejoin:round;stroke-miterlimit:10;}
	.st7{fill:none;}
</style>
<g id="Layer_1" class="st0">
</g>
<g id="guide" class="st0">
	<g class="st1">
		<rect x="8" y="8" class="st2" width="32" height="32"/>
	</g>
</g>
<g id="icon">
	<g>
		<path d="M18.8,15.9l13.3,13.3l-22,8.7L18.8,15.9 M18.8,13.8c-0.7,0-1.5,0.4-1.7,1.2L8.1,37.5C7.6,38.8,8.6,40,9.9,40
			c0.2,0,0.4,0,0.7-0.1L33,31c1.3-0.5,1.6-2.1,0.7-3.1L20.1,14.3C19.7,14,19.2,13.8,18.8,13.8L18.8,13.8z"/>
	</g>
	<g>
		<path class="st3" d="M32.5,23c1.8-1.8,4.6-1.7,6.5,0.1"/>
		<path class="st3" d="M25,15.5c1.8-1.8,1.7-4.6-0.1-6.5"/>
		<line class="st3" x1="33.8" y1="14.2" x2="29" y2="19.1"/>
	</g>
</g>
</svg>
