<?xml version="1.0" encoding="utf-8"?>
<!-- Generator: Adobe Illustrator 21.1.0, SVG Export Plug-In . SVG Version: 6.00 Build 0)  -->
<svg version="1.1" xmlns="http://www.w3.org/2000/svg" xmlns:xlink="http://www.w3.org/1999/xlink" x="0px" y="0px"
	 viewBox="0 0 48 48" style="enable-background:new 0 0 48 48;" xml:space="preserve">
<style type="text/css">
	.st0{display:none;}
	.st1{display:inline;opacity:0.3;}
	.st2{fill:#FF3A40;}
	.st3{fill:none;stroke:#000000;stroke-width:2;stroke-linecap:round;stroke-linejoin:round;stroke-miterlimit:10;}
	.st4{fill:none;stroke:#000000;stroke-width:2;stroke-linecap:round;stroke-miterlimit:10;}
	.st5{fill:none;stroke:#000000;stroke-width:2;stroke-miterlimit:10;}
	.st6{fill:none;stroke:#000000;stroke-width:2;stroke-linejoin:round;stroke-miterlimit:10;}
	.st7{fill:none;}
</style>
<g id="Layer_1" class="st0">
</g>
<g id="guide" class="st0">
	<g class="st1">
		<rect x="8" y="8" class="st2" width="32" height="32"/>
	</g>
</g>
<g id="icon">
	<g>
		<path d="M35,14c1.1,0,2,0.9,2,2v19c0,1.1-0.9,2-2,2H13c-1.1,0-2-0.9-2-2V16c0-1.1,0.9-2,2-2H35 M35,12H13c-2.2,0-4,1.8-4,4v19
			c0,2.2,1.8,4,4,4h22c2.2,0,4-1.8,4-4V16C39,13.8,37.2,12,35,12L35,12z"/>
	</g>
	<g>
		<line class="st3" x1="18" y1="10" x2="18" y2="16"/>
	</g>
	<g>
		<line class="st3" x1="30" y1="10" x2="30" y2="16"/>
	</g>
	<line class="st3" x1="10" y1="20" x2="38" y2="20"/>
	<g>
		<g>
			<polygon points="17,24 15,24 15,26 17,26 17,24 			"/>
		</g>
		<g>
			<polygon points="17,28 15,28 15,30 17,30 17,28 			"/>
		</g>
		<g>
			<polygon points="17,32 15,32 15,34 17,34 17,32 			"/>
		</g>
	</g>
	<g>
		<g>
			<polygon points="21,24 19,24 19,26 21,26 21,24 			"/>
		</g>
		<g>
			<polygon points="21,28 19,28 19,30 21,30 21,28 			"/>
		</g>
		<g>
			<polygon points="21,32 19,32 19,34 21,34 21,32 			"/>
		</g>
	</g>
	<g>
		<g>
			<polygon points="25,24 23,24 23,26 25,26 25,24 			"/>
		</g>
		<g>
			<polygon points="25,28 23,28 23,30 25,30 25,28 			"/>
		</g>
		<g>
			<polygon points="25,32 23,32 23,34 25,34 25,32 			"/>
		</g>
	</g>
	<g>
		<g>
			<polygon points="29,24 27,24 27,26 29,26 29,24 			"/>
		</g>
		<g>
			<polygon points="29,28 27,28 27,30 29,30 29,28 			"/>
		</g>
		<g>
			<polygon points="29,32 27,32 27,34 29,34 29,32 			"/>
		</g>
	</g>
	<g>
		<g>
			<polygon points="33,24 31,24 31,26 33,26 33,24 			"/>
		</g>
		<g>
			<polygon points="33,28 31,28 31,30 33,30 33,28 			"/>
		</g>
		<g>
			<polygon points="33,32 31,32 31,34 33,34 33,32 			"/>
		</g>
	</g>
</g>
</svg>
