<?xml version="1.0" encoding="utf-8"?>
<!-- Generator: Adobe Illustrator 21.1.0, SVG Export Plug-In . SVG Version: 6.00 Build 0)  -->
<svg version="1.1" xmlns="http://www.w3.org/2000/svg" xmlns:xlink="http://www.w3.org/1999/xlink" x="0px" y="0px"
	 viewBox="0 0 48 48" style="enable-background:new 0 0 48 48;" xml:space="preserve">
<style type="text/css">
	.st0{display:none;}
	.st1{display:inline;opacity:0.3;}
	.st2{fill:#FF3A40;}
	.st3{fill:none;stroke:#000000;stroke-width:2;stroke-linecap:round;stroke-linejoin:round;stroke-miterlimit:10;}
	.st4{fill:none;stroke:#000000;stroke-width:2;stroke-linecap:round;stroke-miterlimit:10;}
	.st5{fill:none;stroke:#000000;stroke-width:2;stroke-miterlimit:10;}
	.st6{fill:none;stroke:#000000;stroke-width:2;stroke-linejoin:round;stroke-miterlimit:10;}
	.st7{fill:none;}
</style>
<g id="Layer_1" class="st0">
</g>
<g id="guide" class="st0">
	<g class="st1">
		<rect x="8" y="8" class="st2" width="32" height="32"/>
	</g>
</g>
<g id="icon">
	<path class="st7" d="M7.9,20.6c0,0.6,0.3,1.1,0.8,1.4c-0.3-0.5-0.6-1.1-0.6-1.7L7.9,20.6z"/>
	<path class="st7" d="M40,20.6l-0.1-0.3c-0.1,0.6-0.3,1.2-0.6,1.7C39.7,21.7,40,21.2,40,20.6z"/>
	<path d="M10.3,22.6c1.3,0,2.4-1,2.4-2.2c0-0.6,0.4-1,1-1s1,0.4,1,1c0,1.2,1.1,2.2,2.4,2.2s2.4-1,2.4-2.2c0-0.6,0.4-1,1-1s1,0.4,1,1
		c0,1.2,1.1,2.2,2.4,2.2s2.4-1,2.4-2.2c0-0.6,0.4-1,1-1s1,0.4,1,1c0,1.2,1.1,2.2,2.4,2.2s2.4-1,2.4-2.2c0-0.6,0.4-1,1-1s1,0.4,1,1
		c0,1.2,1.1,2.2,2.4,2.2c0.6,0,1.2-0.2,1.6-0.6c0.4-0.5,0.6-1.1,0.6-1.7l-4.1-10.2l-23.7,0L8,20.3c0.1,0.6,0.3,1.2,0.6,1.7
		C9.1,22.4,9.6,22.6,10.3,22.6z"/>
	<path d="M37.1,24.5c-1.1-0.1-2.2-0.7-2.9-1.5c-0.8,0.9-2,1.5-3.4,1.5s-2.6-0.6-3.4-1.5c-0.8,0.9-2,1.5-3.4,1.5s-2.6-0.6-3.4-1.5
		c-0.8,0.9-2,1.5-3.4,1.5s-2.6-0.6-3.4-1.5c-0.7,0.8-1.6,1.3-2.7,1.5v12.1c0,2,1.1,3.4,2.8,3.4l8.2,0c0,0,0,0,0,0c0,0,0,0,0,0V30
		c0-1.1,0.9-2,2-2c1.1,0,2,0.9,2,2v10c0,0,0,0,0,0h0l7.9,0c1.8,0,3.2-1.5,3.2-3.4L37.1,24.5z"/>
</g>
</svg>
