<?xml version="1.0" encoding="utf-8"?>
<!-- Generator: Adobe Illustrator 21.1.0, SVG Export Plug-In . SVG Version: 6.00 Build 0)  -->
<svg version="1.1" xmlns="http://www.w3.org/2000/svg" xmlns:xlink="http://www.w3.org/1999/xlink" x="0px" y="0px"
	 viewBox="0 0 48 48" style="enable-background:new 0 0 48 48;" xml:space="preserve">
<style type="text/css">
	.st0{display:none;}
	.st1{display:inline;opacity:0.3;}
	.st2{fill:#FF3A40;}
	.st3{fill:none;stroke:#000000;stroke-width:2;stroke-linecap:round;stroke-linejoin:round;stroke-miterlimit:10;}
	.st4{fill:none;stroke:#000000;stroke-width:2;stroke-linecap:round;stroke-miterlimit:10;}
	.st5{fill:none;stroke:#000000;stroke-width:2;stroke-miterlimit:10;}
	.st6{font-family:'Arciform';}
	.st7{font-size:16.6649px;}
	.st8{fill:none;stroke:#000000;stroke-width:2;stroke-linejoin:round;stroke-miterlimit:10;}
	.st9{fill:none;}
</style>
<g id="Layer_1" class="st0">
</g>
<g id="guide" class="st0">
	<g class="st1">
		<rect x="8" y="8" class="st2" width="32" height="32"/>
	</g>
</g>
<g id="icon">
	<text transform="matrix(1 0 0 1 17.3284 24.9692)" class="st6 st7">?</text>
	<g>
		<path d="M29.5,11c0.8,0,1.5,0.7,1.5,1.5v12.9c0,0.8-0.7,1.5-1.5,1.5H15.9c-0.5,0-0.9,0.2-1.3,0.5l-3.7,3v-5V12.5
			c0-0.8,0.7-1.5,1.5-1.5H29.5 M29.5,9H12.5C10.6,9,9,10.6,9,12.5v12.9v7c0,0.6,0.5,1.1,1.1,1.1c0.3,0,0.5-0.1,0.7-0.3l5.1-4.3h13.6
			c1.9,0,3.5-1.6,3.5-3.5V12.5C33,10.6,31.4,9,29.5,9L29.5,9z"/>
	</g>
	<path class="st3" d="M23.8,31.8v1.5c0,1.1,0.9,2,2,2h8.1l3,2.5c0.4,0.4,1.1,0.1,1.1-0.4v-4.1v-6.1c0-1.1-0.9-2-2-2"/>
</g>
</svg>
